{
  "accessors": [
    {
      "bufferView": 2,
      "componentType": 5126,
      "count": 2014,
      "max": [
        3.867722511291504,
        7.426400184631348,
        11.551424980163574
      ],
      "min": [
        -14.689059257507324,
        -7.426397323608398,
        -5.885209560394287
      ],
      "type": "VEC3"
    },
    {
      "bufferView": 2,
      "byteOffset": 24168,
      "componentType": 5126,
      "count": 2014,
      "max": [
        1.0,
        1.0,
        1.0
      ],
      "min": [
        -1.0,
        -1.0,
        -1.0
      ],
      "type": "VEC3"
    },
    {
      "bufferView": 1,
      "componentType": 5126,
      "count": 2014,
      "max": [
        0.987165629863739,
        0.9810369610786438
      ],
      "min": [
        0.00969592947512865,
        0.0078125
      ],
      "type": "VEC2"
    },
    {
      "bufferView": 0,
      "componentType": 5125,
      "count": 9606,
      "type": "SCALAR"
    },
    {
      "bufferView": 2,
      "byteOffset": 48336,
      "componentType": 5126,
      "count": 332,
      "max": [
        -1.3430213928222656,
        2.4235544204711914,
        11.163446426391602
      ],
      "min": [
        -14.488617897033691,
        -5.417062759399414,
        10.519857406616211
      ],
      "type": "VEC3"
    },
    {
      "bufferView": 2,
      "byteOffset": 52320,
      "componentType": 5126,
      "count": 332,
      "max": [
        0.849983274936676,
        0.9517474174499512,
        1.0
      ],
      "min": [
        -0.9533311724662781,
        -0.9520231485366821,
        -1.0
      ],
      "type": "VEC3"
    },
    {
      "bufferView": 1,
      "byteOffset": 16112,
      "componentType": 5126,
      "count": 332,
      "max": [
        0.9922743439674377,
        0.947212815284729
      ],
      "min": [
        0.0078125,
        0.007807448506355286
      ],
      "type": "VEC2"
    },
    {
      "bufferView": 0,
      "byteOffset": 38424,
      "componentType": 5125,
      "count": 1500,
      "type": "SCALAR"
    }
  ],
  "asset": {
    "extras": {
      "author": "ZOLEX (https://sketchfab.com/zolex)",
      "license": "CC-BY-4.0 (http://creativecommons.org/licenses/by/4.0/)",
      "source": "https://sketchfab.com/3d-models/scouter-b465ef786b2d42ab90b3f593ba5476ab",
      "title": "Scouter"
    },
    "generator": "Sketchfab-12.66.0",
    "version": "2.0"
  },
  "bufferViews": [
    {
      "buffer": 0,
      "byteLength": 44424,
      "name": "floatBufferViews",
      "target": 34963
    },
    {
      "buffer": 0,
      "byteLength": 18768,
      "byteOffset": 44424,
      "byteStride": 8,
      "name": "floatBufferViews",
      "target": 34962
    },
    {
      "buffer": 0,
      "byteLength": 56304,
      "byteOffset": 63192,
      "byteStride": 12,
      "name": "floatBufferViews",
      "target": 34962
    }
  ],
  "buffers": [
    {
      "byteLength": 119496,
      "uri": "scene.bin"
    }
  ],
  "images": [
    {
      "uri": "textures/frame_MAT_baseColor.png"
    },
    {
      "uri": "textures/frame_MAT_metallicRoughness.png"
    },
    {
      "uri": "textures/lens_MAT_baseColor.png"
    },
    {
      "uri": "textures/lens_MAT_metallicRoughness.png"
    },
    {
      "uri": "textures/lens_MAT_emissive.png"
    }
  ],
  "materials": [
    {
      "name": "frame_MAT",
      "pbrMetallicRoughness": {
        "baseColorTexture": {
          "index": 0
        },
        "metallicRoughnessTexture": {
          "index": 1
        }
      }
    },
    {
      "alphaMode": "BLEND",
      "doubleSided": true,
      "emissiveFactor": [
        1.0,
        1.0,
        1.0
      ],
      "emissiveTexture": {
        "index": 4
      },
      "name": "lens_MAT",
      "pbrMetallicRoughness": {
        "baseColorFactor": [
          1.0,
          1.0,
          1.0,
          0.5
        ],
        "baseColorTexture": {
          "index": 2
        },
        "metallicRoughnessTexture": {
          "index": 3
        }
      }
    }
  ],
  "meshes": [
    {
      "name": "scouter_frame_MAT_0",
      "primitives": [
        {
          "attributes": {
            "NORMAL": 1,
            "POSITION": 0,
            "TEXCOORD_0": 2
          },
          "indices": 3,
          "material": 0,
          "mode": 4
        }
      ]
    },
    {
      "name": "scouter_lens_MAT_0",
      "primitives": [
        {
          "attributes": {
            "NORMAL": 5,
            "POSITION": 4,
            "TEXCOORD_0": 6
          },
          "indices": 7,
          "material": 1,
          "mode": 4
        }
      ]
    }
  ],
  "nodes": [
    {
      "children": [
        1
      ],
      "matrix": [
        1.0,
        0.0,
        0.0,
        0.0,
        0.0,
        2.220446049250313e-16,
        -1.0,
        0.0,
        0.0,
        1.0,
        2.220446049250313e-16,
        0.0,
        0.0,
        0.0,
        0.0,
        1.0
      ],
      "name": "Sketchfab_model"
    },
    {
      "children": [
        2
      ],
      "matrix": [
        1.0,
        0.0,
        0.0,
        0.0,
        0.0,
        0.0,
        1.0,
        0.0,
        0.0,
        -1.0,
        0.0,
        0.0,
        0.0,
        0.0,
        0.0,
        1.0
      ],
      "name": "b32570df5d804b0c83d3b8e3d405eb90.fbx"
    },
    {
      "children": [
        3
      ],
      "name": "RootNode"
    },
    {
      "children": [
        4,
        5
      ],
      "name": "scouter"
    },
    {
      "mesh": 0,
      "name": "scouter_frame_MAT_0"
    },
    {
      "mesh": 1,
      "name": "scouter_lens_MAT_0"
    }
  ],
  "samplers": [
    {
      "magFilter": 9729,
      "minFilter": 9987,
      "wrapS": 10497,
      "wrapT": 10497
    }
  ],
  "scene": 0,
  "scenes": [
    {
      "name": "Sketchfab_Scene",
      "nodes": [
        0
      ]
    }
  ],
  "textures": [
    {
      "sampler": 0,
      "source": 0
    },
    {
      "sampler": 0,
      "source": 1
    },
    {
      "sampler": 0,
      "source": 2
    },
    {
      "sampler": 0,
      "source": 3
    },
    {
      "sampler": 0,
      "source": 4
    }
  ]
}
